<?xml version="1.0" encoding="utf-8"?>
<!-- Generator: Adobe Illustrator 16.0.0, SVG Export Plug-In . SVG Version: 6.00 Build 0)  -->
<!DOCTYPE svg PUBLIC "-//W3C//DTD SVG 1.1//EN" "http://www.w3.org/Graphics/SVG/1.1/DTD/svg11.dtd">
<svg version="1.1" id="Layer_1" xmlns="http://www.w3.org/2000/svg" xmlns:xlink="http://www.w3.org/1999/xlink" x="0px" y="0px"
	 viewBox="0 0 210.682 152.365" enable-background="new 0 0 210.682 152.365"
	 xml:space="preserve">
<g>
	<polygon fill="#FFFFFF" points="113.775,84.228 118.821,102.142 131.554,102.451 133.171,52.927 120.898,52.638 120.408,67.675 
		115.579,52.509 102.538,52.202 100.923,101.718 113.194,102.009 	"/>
	<polygon fill="#FFFFFF" points="55.567,69.308 50.605,70.511 50.605,54.275 41.649,53.871 41.649,104.385 50.605,102.215 
		50.605,80.987 55.567,79.785 55.567,101.015 64.549,98.836 64.549,56 55.567,54.773 	"/>
	<path fill="#FFFFFF" d="M78.96,59.979l-5.544,34.447h6.422l0.837-5.682h6.375l0.832,5.682h6.429l-5.497-34.447H78.96z
		 M84.584,82.856h-3.025l2.156-17.972h0.292l1.368,11.365l0.792,6.606H84.584z"/>
	<path fill="#FFFFFF" d="M172.448,56.499c-4.789-0.379-7.216,3.084-7.506,6.682l-1.239,15.595c-0.265,3.339,1.274,7.377,6.481,7.791
		c4.958,0.398,7.066-3.348,7.273-5.957l0.318-4.032l-6.078-0.482l-0.272,3.428c-0.115,1.453-0.647,1.414-0.962,1.387
		c-0.711-0.057-0.768-0.518-0.736-0.957l0.519-6.467l7.732,0.617l0.794-10.041C179.11,59.863,176.565,56.828,172.448,56.499z
		 M172.32,68.319l-1.656-0.135l0.402-5.039c0.019-0.209,0.221-1.053,0.847-1.004c0.242,0.023,0.89,0.072,0.807,1.137L172.32,68.319z
		"/>
	<polygon fill="#FFFFFF" points="145.281,77.16 145.366,77.162 149.176,93.633 155.481,93.949 157.029,62.597 151.207,62.308 
		150.522,76.193 150.436,76.193 146.715,62.089 140.207,61.769 138.655,93.112 144.477,93.403 	"/>
	<polygon fill="#FFFFFF" points="196.273,86.256 195.442,53.635 187.251,55.598 188.253,94.394 206.612,89.992 206.447,83.817 	"/>
	<path fill="#CE2027" d="M93.353,103.442H74.368l-23.962,48.923l32.865-1.787l15.863-35.72c0.618-1.334,1.146-2.498,1.576-3.493
		l-7.148-0.523L93.353,103.442z"/>
	<path fill="#CE2027" d="M138.391,99.071l0.049,11.003l-21.336-1.548c0.274,0.438,0.564,0.896,0.869,1.377l20.422,34.121
		l32.861-1.787l-27.411-42.52L138.391,99.071z"/>
	<path fill="#CE2027" d="M138.175,44.463L161.067,0l-33.054,1.799l-14.089,29.939c-0.914,1.818-1.621,3.309-2.123,4.471
		c-0.506,1.166-0.986,2.232-1.438,3.207c-0.309,0.656-0.615,1.338-0.916,2.023l28.72,1.055L138.175,44.463z"/>
	<path fill="#CE2027" d="M93.852,49.161l-0.183-6.354l7.323,0.271c-0.271-0.469-0.544-0.941-0.818-1.428
		c-0.84-1.471-1.61-2.85-2.312-4.137c-0.701-1.291-1.261-2.236-1.672-2.846L77.981,6.298L45.494,8.066l30.274,45.316L93.852,49.161z
		"/>
	<path d="M27.712,74.49v-0.186c0-1.711-0.513-2.982-1.535-3.814c-1.02-0.83-2.148-1.244-3.374-1.244
		c-1.599,0-3.157,0.586-4.674,1.76c-1.514,1.176-2.732,2.969-3.652,5.377c-0.917,2.414-1.375,4.761-1.375,7.041
		c0,1.744,0.466,3.205,1.411,4.375c0.938,1.181,2.314,1.763,4.122,1.763c1.66,0,3.058-0.527,4.197-1.58
		c1.145-1.056,2.149-2.674,3.01-4.861l10.162,1.574c-1.056,3.631-3.103,6.678-6.124,9.158c-3.03,2.473-6.967,3.707-11.821,3.707
		c-5.064,0-8.933-1.347-11.614-4.045c-2.67-2.701-4.007-6.293-4.007-10.779c0-3.435,0.794-6.885,2.383-10.349
		c1.589-3.465,3.908-6.188,6.958-8.172c3.053-1.98,6.707-2.971,10.973-2.971c4.425,0,7.92,1.109,10.481,3.332
		c1.995,1.727,3.333,3.893,4.02,6.484l-0.519-15.074L2.454,59.799L0,106.33l38.101-10.343l-0.77-22.581L27.712,74.49z"/>
	<path d="M66.96,52.826l-28.962-4.41l2.645,59.494l26.853-1.39L66.96,52.826z M64.549,98.836l-8.982,2.179V79.785l-4.962,1.202
		v21.228l-8.956,2.17V53.871l8.956,0.404v16.236l4.962-1.203V54.773L64.549,56V98.836z"/>
	<path d="M72.664,58.246l-1.769,38.571h25.835l-3.02-43.487L72.664,58.246z M87.882,94.426l-0.832-5.682h-6.375l-0.837,5.682h-6.422
		l5.544-34.447h9.854l5.497,34.447H87.882z"/>
	<polygon points="84.007,64.885 83.715,64.885 81.559,82.856 84.584,82.856 86.167,82.856 85.375,76.25 	"/>
	<path d="M99.128,104.381l36.425,2.646l-0.247-58.991L97.49,46.652L99.128,104.381z M102.538,52.202l13.041,0.307l4.829,15.166
		l0.489-15.037l12.273,0.289l-1.617,49.524l-12.733-0.31l-5.046-17.914l-0.581,17.781l-12.271-0.291L102.538,52.202z"/>
	<path d="M136.819,96.062l20.291,2.39l2.896-40.961l-22.183,0.883L136.819,96.062z M140.207,61.769l6.508,0.32l3.721,14.104h0.086
		l0.686-13.885l5.821,0.289l-1.548,31.352l-6.305-0.316l-3.81-16.471l-0.085-0.002l-0.805,16.243l-5.822-0.291L140.207,61.769z"/>
	<path d="M171.912,62.141c-0.626-0.049-0.828,0.795-0.847,1.004l-0.402,5.039l1.656,0.135l0.399-5.041
		C172.802,62.213,172.155,62.164,171.912,62.141z"/>
	<path d="M164.792,50.705l-5.291,41.094l21.93-4.661l-0.506-38.195L164.792,50.705z M178.772,64.063l-0.794,10.041l-7.732-0.617
		l-0.519,6.467c-0.031,0.439,0.025,0.9,0.736,0.957c0.314,0.027,0.847,0.066,0.962-1.387l0.272-3.428l6.078,0.482l-0.318,4.032
		c-0.207,2.609-2.315,6.355-7.273,5.957c-5.207-0.414-6.746-4.452-6.481-7.791l1.239-15.595c0.29-3.598,2.717-7.061,7.506-6.682
		C176.565,56.828,179.11,59.863,178.772,64.063z"/>
	<path d="M185.218,52.449l-2.771,44.618l28.233-2.899l-3.407-40.713L185.218,52.449z M188.253,94.394l-1.002-38.795l8.19-1.963
		l0.831,32.621l10.174-2.438l0.165,6.175L188.253,94.394z"/>
</g>
<path fill="#FFFFFF" d="M37.252,71.06c-0.687-2.591-2.024-4.757-4.02-6.483c-2.562-2.224-6.057-3.332-10.481-3.332
	c-4.266,0-7.92,0.991-10.973,2.971c-3.05,1.983-5.369,4.707-6.958,8.172c-1.589,3.464-2.383,6.914-2.383,10.349
	c0,4.486,1.337,8.078,4.007,10.779c2.682,2.698,6.55,4.045,11.614,4.045c4.854,0,8.791-1.234,11.821-3.707
	c3.021-2.48,5.068-5.527,6.124-9.158L25.842,83.12c-0.86,2.188-1.865,3.806-3.01,4.861c-1.14,1.053-2.537,1.58-4.197,1.58
	c-1.808,0-3.184-0.582-4.122-1.763c-0.945-1.17-1.411-2.631-1.411-4.375c0-2.28,0.458-4.627,1.375-7.041
	c0.92-2.407,2.139-4.2,3.652-5.377c1.517-1.174,3.075-1.76,4.674-1.76c1.226,0,2.354,0.414,3.374,1.244
	c1.022,0.832,1.535,2.103,1.535,3.813v0.187l9.619-1.084L37.252,71.06z"/>
</svg>
