<?xml version="1.0" encoding="utf-8"?>
<!-- Generator: Adobe Illustrator 16.0.0, SVG Export Plug-In . SVG Version: 6.00 Build 0)  -->
<!DOCTYPE svg PUBLIC "-//W3C//DTD SVG 1.1//EN" "http://www.w3.org/Graphics/SVG/1.1/DTD/svg11.dtd">
<svg version="1.1" id="Layer_1" xmlns="http://www.w3.org/2000/svg" xmlns:xlink="http://www.w3.org/1999/xlink" x="0px" y="0px"
	 viewBox="0 0 277.322 277.32" enable-background="new 0 0 277.322 277.32"
	 xml:space="preserve">
<g>
	<g>
		<circle fill="#020202" cx="138.661" cy="138.66" r="138.661"/>
		<linearGradient id="SVGID_1_" gradientUnits="userSpaceOnUse" x1="165.6138" y1="218.0322" x2="165.6138" y2="41.3309">
			<stop  offset="0" style="stop-color:#FFE7A3"/>
			<stop  offset="0.5939" style="stop-color:#FFCA05"/>
			<stop  offset="1" style="stop-color:#FAAC18"/>
		</linearGradient>
		<path fill="url(#SVGID_1_)" d="M230.05,124.754c-0.664-1.99-22.801,1.21-31.611,2.285c0.23-0.697,0.433-1.309,0.591-1.765
			c2.891-8.407-4.601-7.229-8.542-7.751c-3.944-0.526-4.343,8.805-4.864,9.857c-0.528,1.049-25.763,3.152-42.853,4.993
			c-17.09,1.84-34.437,7.886-39.958,15.772c-5.521,7.891,3.154,10.778,5.783,9.727c2.628-1.051-1.315-1.051,5.522-6.308
			c6.834-5.26,67.297-11.039,67.297-11.039s-6.311,18.398-9.987,34.171c-3.681,15.773,2.103,34.966,9.33,34.177
			c5.113-0.556,13.933-15.774,16.825-22.608c2.031-4.805,1.051-16.955-0.264-14.327c-1.311,2.629-10.645,18.795-14.063,16.954
			c-2.554-1.376,5.896-31.501,11.541-50.163c7.502-0.575,30.469-2.005,33.146-2.675C231.101,135.264,230.05,124.754,230.05,124.754z
			"/>
		<g>
			<linearGradient id="SVGID_2_" gradientUnits="userSpaceOnUse" x1="211.7036" y1="218.0327" x2="211.7036" y2="41.3279">
				<stop  offset="0" style="stop-color:#FFE7A3"/>
				<stop  offset="0.5939" style="stop-color:#FFCA05"/>
				<stop  offset="1" style="stop-color:#FAAC18"/>
			</linearGradient>
			<path fill="url(#SVGID_2_)" d="M220.057,146.045c0,0-10.251-2.106-13.404,3.941c-3.155,6.051-16.563,29.443-9.466,45.744
				c7.098,16.3,17.072,4.52,19.588,0.395c3.287-5.392,10.909-24.053,11.434-35.36C228.734,149.464,225.582,146.569,220.057,146.045z
				 M207.705,189.944c-3.945-5.258,3.941-25.497,3.941-25.497c-1.837,5.78,7.537,2.633,7.276,4.733
				C218.659,171.281,211.646,195.204,207.705,189.944z"/>
		</g>
		<g>
			<linearGradient id="SVGID_3_" gradientUnits="userSpaceOnUse" x1="124.6089" y1="218.0327" x2="124.6089" y2="41.3307">
				<stop  offset="0" style="stop-color:#FFE7A3"/>
				<stop  offset="0.5939" style="stop-color:#FFCA05"/>
				<stop  offset="1" style="stop-color:#FAAC18"/>
			</linearGradient>
			<path fill="url(#SVGID_3_)" d="M169.851,183.109c-1.84,2.63-11.109,16.368-12.357,12.752
				c-0.688-1.986,12.618-33.783,11.83-36.674c-0.789-2.889-6.309-9.73-11.041-7.888c-4.733,1.838-13.344,11.503-15.71,14.656
				c0.921-5.456,3.222-10.581,2.169-10.842c-1.051-0.263-10.907-0.524-12.75,2.895c-1.84,3.415-9.201,23.132-13.67,30.489
				c-4.466,7.363-10.251,11.57-7.098,5.261c3.153-6.305,12.621-30.104,12.621-30.104c0-2.368-7.625-5.787-10.78-3.684
				c-3.151,2.106-4.732,4.607-4.994,5.923c0,0-4.208-6.838-10.253-3.152c-6.048,3.673-26.241,24.063-23.134,44.423
				c2.629,17.218,11.51,10.443,13.935,8.019c3.156-3.153,5.255-7.101,6.043-7.101c0,0,1.579,7.231,4.732,9.334
				c3.156,2.104,5.798,0.969,13.407-7.887c7.232-8.409,10.649-12.488,10.649-12.488s-4.076,19.06-1.71,20.113
				c2.367,1.053,9.729,2.627,10.252,0c0.525-2.628,6.834-36.677,15.248-41.673c8.415-4.998,2.236,9.075,0.527,14.068
				c-1.678,4.899-4.142,19.128,1.313,22.084c9.463,5.126,26.288-22.604,25.764-24.449
				C174.318,185.346,171.691,180.479,169.851,183.109z M85.987,202.436c-4.208-6.834,10.911-26.027,13.8-28.659
				c2.895-2.626,5.917,1.581,5.917,1.581C105.176,179.3,90.192,209.269,85.987,202.436z"/>
		</g>
		<linearGradient id="SVGID_4_" gradientUnits="userSpaceOnUse" x1="131.7134" y1="218.0337" x2="131.7134" y2="41.329">
			<stop  offset="0" style="stop-color:#FFE7A3"/>
			<stop  offset="0.5939" style="stop-color:#FFCA05"/>
			<stop  offset="1" style="stop-color:#FAAC18"/>
		</linearGradient>
		<path fill="url(#SVGID_4_)" d="M178.437,67.363c-4.176-6.496-14.178-4.045-16.914-2.48c0,0-9.318,7.574-11.516,21.285
			c-0.944,5.887,0.522,12.771,3.141,16.576c-1.416,1.467-3.973,2.701-5.236,2.096c-5.051-2.434-6.753-3.153-11.516-4.887
			c5.773-15.95,14.916-44.475,19.892-53.046c6.413-11.042,13.05-13.093,6.995-0.271c-1.443,3.057-5.699,12.823-5.699,12.823
			c0.391,1.175,8.446,0.784,9.617,0c1.173-0.782,7.902-14.83,9.328-23.024c1.971-11.324-14.03-15.256-24.287-3.335
			c-10.436,12.124-19.043,35.491-27.146,62.201c-0.149,0.497-0.314,0.964-0.473,1.446c-8.556-2.215-16.06-2.803-21.704-1.25
			c-4.708,1.297-26.875,8.384-16.997,25.79c9.869,17.391,37.09,0.749,44.077-9.237c0.815-1.163,1.582-1.846,2.093-3.14
			c7.25,4.505,14.953,6.426,16.705,6.472c4.217,0.112,9.438-4.045,11.161-7.124c2.147,0.578,5.993-0.327,8.198-2.724
			C176.466,96.512,183.186,74.749,178.437,67.363z M94.128,115.231c-2.539-7.423,10.844-12.899,19.441-12.114
			c1.388,0.125,4.09,0.87,7.42,1.922C111.653,121.557,96.302,121.591,94.128,115.231z M163.587,95.695
			c-3.184,2.707-5.83,0.25-4.855-7.956c0.925-7.781,5.091-15.836,10.469-15.53C175.308,72.555,167.497,92.371,163.587,95.695z"/>
		<linearGradient id="SVGID_5_" gradientUnits="userSpaceOnUse" x1="234.936" y1="218.0317" x2="234.936" y2="41.3336">
			<stop  offset="0" style="stop-color:#FFE7A3"/>
			<stop  offset="0.5939" style="stop-color:#FFCA05"/>
			<stop  offset="1" style="stop-color:#FAAC18"/>
		</linearGradient>
		<path fill="url(#SVGID_5_)" d="M223.521,156.736c0,0,10.863-4.596,14.633-9.836c2.758-3.836,4.343-3.578,7.195-1.438
			c5.756,4.317,2.398,9.113-1.12,12.912c-2.215,2.393-1.077,5.875-0.599,8.996c0.479,3.113,4.335,16.887,5.397,22.785
			c2.317,12.874-7.961,22.62-18.79,16.708c-6.078-3.317-9.434-12.89-8.395-15.831c0.718-2.037,9.834-3.115,9.834-3.115
			s0.879,10.018,3.597,10.314c6.997,0.757,2.64-12.235-0.479-22.068c-3.118-9.834-2.64-11.514-2.159-12.953
			c-3.119,0.721-7.355,5.598-10.714,4.877C218.564,167.371,222.082,157.936,223.521,156.736z"/>
		<linearGradient id="SVGID_6_" gradientUnits="userSpaceOnUse" x1="190.7046" y1="218.0317" x2="190.7046" y2="41.3301">
			<stop  offset="0" style="stop-color:#FFE7A3"/>
			<stop  offset="0.5939" style="stop-color:#FFCA05"/>
			<stop  offset="1" style="stop-color:#FAAC18"/>
		</linearGradient>
		<path fill="url(#SVGID_6_)" d="M194.091,84.066c0,0,6.654,2.405,7.625,2.102c1.666-0.52,4.607-17.59,4.65-20.008
			c0.047-2.416-0.307-7.284-5.207-8.383c-4.889-1.084-10.418-0.52-14.037,5.666c-1.035,1.769-8.232,7.682-10.08,8.314
			c-1.848,0.635-2.215,6.964-1.905,8.22c0.31,1.255,5.456-1.985,7.058-2.786c-0.613,1.574,5.644,16.098,6.544,18.848
			c1.422,4.345,0.016,8.955-0.829,9.604c-0.847,0.651-4.982,0.489-4.57-6.527c0.162-2.804,1.458-5.114,1.458-5.114l-5.754-2.971
			c0,0-2.749,3.252-3.065,9.28c-0.321,6.099,1.425,11.158,7.123,13.311c2.729,1.03,11.17,0,13.496-6.048
			c3.546-9.224-4.619-23.204-5.119-32.107c-0.365-6.482,1.432-7.648,2.908-8.141c1.396-0.47,3.17-0.76,2.27,4.939
			C196.138,75.557,194.091,84.066,194.091,84.066z"/>
		<g>
			<path fill="#F5F5F5" d="M48.563,71.336c0-2.332-0.687-4.172-2.042-5.459c-1.342-1.283-3.382-1.931-6.065-1.931h-7.713v24.319
				h5.666v-9.335h1.818l3.475,9.335h6.175L45.399,77.6C47.499,76.242,48.563,74.141,48.563,71.336z M38.409,68.777h1.882
				c1.897,0,2.67,0.734,2.67,2.523c0,0.892-0.216,1.582-0.657,2.098c-0.404,0.472-1.073,0.7-2.044,0.7h-1.852V68.777z"/>
			<rect x="93.919" y="63.946" fill="#F5F5F5" width="5.667" height="24.319"/>
			<path fill="#F5F5F5" d="M84.747,65.379c-1.608-0.951-3.742-1.433-6.345-1.433h-6.015v24.319h6.292
				c2.765,0,4.955-0.593,6.507-1.77c1.522-1.155,2.668-2.69,3.402-4.559c0.713-1.816,1.076-3.898,1.076-6.198
				c0-2.2-0.406-4.242-1.206-6.063C87.628,67.787,86.378,66.342,84.747,65.379z M83.785,76.117c0,2.283-0.437,4.111-1.3,5.432
				c-0.788,1.203-2.054,1.789-3.872,1.789h-0.56V68.877h0.56C80.833,68.877,83.785,69.63,83.785,76.117z"/>
			<path fill="#F5F5F5" d="M119.644,66.881c-1.563-2.219-3.834-3.343-6.747-3.343c-2.947,0-5.235,1.131-6.799,3.36
				c-1.487,2.117-2.24,5.215-2.24,9.201c0,4.021,0.76,7.133,2.26,9.244c1.574,2.211,3.86,3.333,6.796,3.333
				c2.925,0,5.196-1.129,6.748-3.352c1.478-2.112,2.225-5.216,2.225-9.226S121.133,68.984,119.644,66.881z M110.55,70.209
				c0.463-1.158,1.179-1.675,2.315-1.675c1.138,0,1.856,0.514,2.323,1.673c0.564,1.399,0.853,3.383,0.853,5.898
				c0,2.562-0.288,4.556-0.858,5.93c-0.47,1.136-1.169,1.647-2.267,1.647c-1.191,0-1.924-0.524-2.376-1.702
				c-0.556-1.43-0.835-3.403-0.835-5.875C109.705,73.601,109.988,71.617,110.55,70.209z"/>
			<path fill="#F5F5F5" d="M57.57,63.946l-7.041,24.319h5.604l1.388-5.598h5.02l1.401,5.598h5.797l-6.531-24.319H57.57z
				 M58.734,77.786l1.287-5.189l1.3,5.189H58.734z"/>
		</g>
	</g>
	<g>
		<linearGradient id="SVGID_7_" gradientUnits="userSpaceOnUse" x1="71.4761" y1="218.0322" x2="71.4761" y2="41.329">
			<stop  offset="0" style="stop-color:#FFE7A3"/>
			<stop  offset="0.5939" style="stop-color:#FFCA05"/>
			<stop  offset="1" style="stop-color:#FAAC18"/>
		</linearGradient>
		<path fill="url(#SVGID_7_)" d="M95.816,117.517c-1.668-0.023-3.617,0.327-5.887,1.185c-11.828,4.471-32.436,23.09-39.953,43.641
			c-4.212,11.503-0.527,20.505,4.203,20.505c4.732,0,10.589-3.323,11.964-1.706c2.231,2.628-8.537,37.01-11.44,36.935
			c-4.994-0.131-5.784-11.57-2.628-15.771c3.154-4.207,5.652-4.999,4.469-6.31c-1.125-1.252-5.519-8.939-9.727-3.684
			S34,206.836,40.838,219.191c6.834,12.355,15.445,11.238,21.754,8.347c5.861-2.688,16.559-36.278,16.033-44.953
			c-0.524-8.677-6.309-14.985-13.932-13.671c-7.625,1.313-2.365-6.704,0-10.646c2.365-3.943,10.458-16.556,14.986-20.309
			c4.598-3.809,12.746-8.607,9.856-1.775c-2.893,6.839-14.064,28.527-12.226,30.891c0,0,6.313,5.26,10.517-1.315
			c4.205-6.571,16.563-32.335,16.823-37.329c0.147-2.782-0.771-6.872-3.66-9.176C98.505,119.23,96.878,118.471,95.816,117.517z"/>
	</g>
</g>
</svg>
