<?xml version="1.0" encoding="utf-8"?>
<!-- Generator: Adobe Illustrator 16.0.0, SVG Export Plug-In . SVG Version: 6.00 Build 0)  -->
<!DOCTYPE svg PUBLIC "-//W3C//DTD SVG 1.1//EN" "http://www.w3.org/Graphics/SVG/1.1/DTD/svg11.dtd">
<svg version="1.1" id="Layer_1" xmlns="http://www.w3.org/2000/svg" xmlns:xlink="http://www.w3.org/1999/xlink" x="0px" y="0px"
	 viewBox="0 0 370.536 303.738" enable-background="new 0 0 370.536 303.738"
	 xml:space="preserve">
<g>
	<path d="M336.28,150.728c0,83.245-67.481,150.728-150.724,150.728c-83.247,0-150.729-67.482-150.729-150.728
		C34.827,67.481,102.31,0,185.557,0C268.799,0,336.28,67.481,336.28,150.728z"/>
	<path fill="#FFFFFF" d="M185.557,288.895c-76.187,0-138.169-61.982-138.169-138.167c0-76.187,61.982-138.167,138.169-138.167
		c76.186,0,138.163,61.98,138.163,138.167C323.72,226.912,261.742,288.895,185.557,288.895z M185.557,14.844
		c-74.929,0-135.885,60.957-135.885,135.884S110.628,286.61,185.557,286.61c74.925,0,135.879-60.956,135.879-135.883
		S260.481,14.844,185.557,14.844z"/>
	<path fill="#FFFFFF" d="M185.557,277.476c-69.891,0-126.75-56.859-126.75-126.748c0-69.891,56.859-126.748,126.75-126.748
		c69.887,0,126.744,56.857,126.744,126.748C312.301,220.616,255.443,277.476,185.557,277.476z M185.557,26.263
		c-68.63,0-124.466,55.834-124.466,124.465c0,68.628,55.836,124.464,124.466,124.464c68.629,0,124.461-55.836,124.461-124.464
		C310.018,82.097,254.186,26.263,185.557,26.263z"/>
	<path fill="#FFFFFF" d="M185.557,266.057c-63.594,0-115.331-51.736-115.331-115.329s51.737-115.33,115.331-115.33
		c63.591,0,115.325,51.737,115.325,115.33S249.147,266.057,185.557,266.057z M185.557,37.682
		c-62.334,0-113.047,50.711-113.047,113.046c0,62.332,50.713,113.046,113.047,113.046c62.331,0,113.042-50.714,113.042-113.046
		C298.599,88.393,247.888,37.682,185.557,37.682z"/>
	<path fill="#FFFFFF" d="M185.557,254.638c-57.298,0-103.913-46.616-103.913-103.91c0-57.299,46.614-103.911,103.913-103.911
		c57.295,0,103.907,46.612,103.907,103.911C289.464,208.021,242.852,254.638,185.557,254.638z M185.557,49.101
		c-56.039,0-101.629,45.588-101.629,101.627c0,56.036,45.59,101.627,101.629,101.627c56.035,0,101.623-45.591,101.623-101.627
		C287.18,94.688,241.592,49.101,185.557,49.101z"/>
	<path fill="#FFFFFF" d="M185.557,243.22c-51,0-92.494-41.494-92.494-92.492c0-51.001,41.493-92.492,92.494-92.492
		c50.997,0,92.488,41.491,92.488,92.492C278.045,201.726,236.554,243.22,185.557,243.22z M185.557,60.52
		c-49.743,0-90.21,40.465-90.21,90.208c0,49.738,40.467,90.208,90.21,90.208c49.739,0,90.204-40.47,90.204-90.208
		C275.761,100.984,235.296,60.52,185.557,60.52z"/>
	<path fill="#FFFFFF" d="M185.557,231.801c-44.705,0-81.075-36.371-81.075-81.073c0-44.705,36.371-81.073,81.075-81.073
		c44.703,0,81.069,36.368,81.069,81.073C266.626,195.43,230.26,231.801,185.557,231.801z M185.557,71.938
		c-43.444,0-78.791,35.345-78.791,78.79c0,43.444,35.347,78.789,78.791,78.789c43.443,0,78.785-35.345,78.785-78.789
		C264.342,107.282,229,71.938,185.557,71.938z"/>
	<path fill="#FFFFFF" d="M185.557,220.382c-38.409,0-69.656-31.248-69.656-69.654c0-38.409,31.248-69.654,69.656-69.654
		c38.404,0,69.65,31.245,69.65,69.654C255.207,189.134,223.961,220.382,185.557,220.382z M185.557,83.356
		c-37.15,0-67.373,30.22-67.373,67.371c0,37.146,30.222,67.37,67.373,67.37c37.146,0,67.367-30.224,67.367-67.37
		C252.924,113.576,222.703,83.356,185.557,83.356z"/>
	<path fill="#FFFFFF" d="M185.557,208.963c-32.11,0-58.235-26.125-58.235-58.235c0-32.111,26.125-58.236,58.235-58.236
		c32.109,0,58.232,26.125,58.232,58.236C243.789,182.838,217.666,208.963,185.557,208.963z M185.557,94.775
		c-30.853,0-55.952,25.099-55.952,55.952c0,30.851,25.099,55.952,55.952,55.952c30.85,0,55.947-25.102,55.947-55.952
		C241.504,119.874,216.406,94.775,185.557,94.775z"/>
	<path fill="#FFFFFF" d="M185.557,197.544c-25.816,0-46.816-21.004-46.816-46.816c0-25.817,21-46.817,46.816-46.817
		c25.813,0,46.813,21,46.813,46.817C232.369,176.54,211.369,197.544,185.557,197.544z M185.557,106.194
		c-24.557,0-44.533,19.976-44.533,44.533c0,24.555,19.976,44.533,44.533,44.533c24.555,0,44.529-19.979,44.529-44.533
		C230.086,126.17,210.111,106.194,185.557,106.194z"/>
	<g>
		<path fill="#FFFFFF" d="M219.809,150.728c0,18.917-15.34,34.256-34.252,34.256c-18.921,0-34.256-15.339-34.256-34.256
			c0-18.922,15.335-34.257,34.256-34.257C204.469,116.471,219.809,131.806,219.809,150.728z"/>
		<path fill="#FFFFFF" d="M185.557,186.126c-19.519,0-35.397-15.88-35.397-35.398c0-19.52,15.879-35.398,35.397-35.398
			c19.518,0,35.395,15.879,35.395,35.398C220.951,170.246,205.074,186.126,185.557,186.126z M185.557,117.613
			c-18.261,0-33.113,14.853-33.113,33.114c0,18.257,14.853,33.114,33.113,33.114c18.258,0,33.11-14.857,33.11-33.114
			C218.667,132.466,203.814,117.613,185.557,117.613z"/>
	</g>
	<g>
		<path d="M284.78,299.171l44.596-30.554l-0.545-19.14l28.659-19.435l-0.17-68.258c1.329,0.075,2.654,0.156,3.979,0.236l4.67,0.285
			v-25.34h-41.611l0.031,4.438l0.036,3.938c-1.883-2.293-3.792-4.581-5.705-6.829l-1.32-1.548h-19.31l-1.32,1.602
			c-2.618,3.171-5.308,6.355-7.997,9.465l-1.093,1.263l0.021,1.672l0.04,3.101c-0.513,0.602-1.021,1.204-1.534,1.807
			c-0.678-5.027-1.36-10.059-2.047-15.099l-0.518-3.81h-28.141l-0.438,3.912c-0.281,2.502-0.563,5.009-0.844,7.516h-1.244
			l-0.004-0.344l-1.374-1.284c-2.983-2.792-6.142-5.705-9.394-8.658l-1.258-1.142h-18.774l-1.28,1.24
			c-2.404,2.328-4.884,4.71-7.538,7.234c-2.212-2.141-4.626-4.474-7.511-7.243l-1.276-1.231h-19.546l-1.275,1.227
			c-1.678,1.61-3.354,3.221-5.035,4.831l-3.426,3.287l-1.352,1.298v1.873l-0.067,41.46l-0.005,2.142l0.598,0.468l-0.008,6.115
			l-0.005,1.16c-1.669,0.04-3.341,0.089-5.009,0.151l0.021-3.563l0.018-3.318h-1.137l0.022-3.457l0.022-4.43l0.018-3.541h-1.133
			l0.018-2.958l0.022-4.705l0.022-3.761h-1.133l0.013-2.457l0.026-4.987l0.023-3.983h-1.138l0.013-1.958l0.027-5.263l0.021-4.202
			h-1.133l0.01-1.463l0.031-5.54l0.021-4.425H122.56l-0.045,4.354l-0.027,2.319c-1.784-1.793-3.542-3.582-5.25-5.339l-1.298-1.334
			H96.939l-1.307,1.432c-1.727,1.887-3.439,3.787-5.13,5.679l0.036-2.649l0.054-4.461H5.139c0,0,7.284,61.555,10.397,87.237
			l0.629,5.215l26.116,20.192v19.207l45.572,30.353H284.78z"/>
		<path d="M286.196,303.738H86.473l-48.759-32.477v-19.409L11.86,231.863l-0.858-7.114c-3.114-25.684-10.4-87.247-10.4-87.247
			L0,132.399h117.87l0.167,0.172l0.002-0.172h50.666l-0.058,11.428h1.128l-0.006,1.445l13.41-12.873h23.234l2.601,2.511
			c1.579,1.515,3.02,2.899,4.362,4.197c1.485-1.425,2.926-2.81,4.34-4.179l2.605-2.529h22.391l2.565,2.333
			c1.811,1.642,3.593,3.273,5.335,4.88l0.803-7.213h36.217l1.166,8.582c1.496-1.769,2.984-3.546,4.449-5.321l2.688-3.261h23.573
			l0.252,0.294l-0.002-0.294h50.777v34.761l-8.635-0.526l0.162,65.827l-28.593,19.39l0.544,19.126L286.196,303.738z M89.236,294.604
			h194.13l41.375-28.346l-0.544-19.155l28.721-19.477l-0.177-70.686l8.66,0.514v-15.92h-32.443l0.152,16.714l-8.214-10.008
			c-1.852-2.25-3.725-4.498-5.603-6.706h-15.05c-2.611,3.163-5.292,6.336-7.976,9.437l0.063,4.748l-9.284,10.881l-3.392-25.065
			h-20.067l-1.281,11.428h-9.837l-0.038-2.906c-2.939-2.749-6.049-5.617-9.251-8.521h-15.154c-2.401,2.324-4.878,4.697-7.522,7.217
			l-3.176,3.021l-3.149-3.049c-2.196-2.126-4.595-4.443-7.453-7.188h-15.866l-8.359,8.022l-0.066,41.313l0.596,0.471l-0.033,13.938
			l-4.434,0.114c-1.65,0.042-3.306,0.087-4.956,0.149l-4.769,0.179l0.045-7.057h-1.142l0.069-11.428h-1.138l0.064-11.424h-1.133
			l0.063-11.428h-1.142l0.066-11.423h-1.135l0.066-11.428h-32.443l-0.149,13.043l-7.681-7.717c-1.779-1.789-3.532-3.573-5.236-5.326
			H98.955c-1.699,1.858-3.383,3.725-5.045,5.585l-8.138,9.117l0.196-14.702H10.279c1.811,15.281,7.221,60.921,9.791,82.119
			l0.401,3.321l26.377,20.393v19.004L89.236,294.604z"/>
	</g>
	<path d="M264.9,278.02l0.008-0.928c0.785,0.759,1.566,1.508,2.342,2.239c-0.539-0.04-1.074-0.085-1.609-0.125l-0.754-0.063
		L264.9,278.02z M265.89,228.344l-2.194-0.281c-0.259-1.949-0.518-3.902-0.781-5.861l0.3,0.33c1.847,2.039,3.68,4.108,5.468,6.178
		C267.75,228.585,266.822,228.464,265.89,228.344z M289.655,194.097l0.026,3.327l0.022,2.953c-1.409-1.722-2.841-3.435-4.277-5.121
		l-0.99-1.159h-14.483l-0.99,1.199c-1.958,2.378-3.979,4.764-5.994,7.097l-0.821,0.95l0.019,1.254l0.098,7.903l0.066,5.321
		c-0.928-6.927-1.869-13.89-2.823-20.87l-0.388-2.854h-21.107l-0.325,2.931c-0.491,4.393-0.985,8.787-1.481,13.18l-0.075-6.392
		l-0.014-1.409l-1.03-0.964c-2.234-2.092-4.607-4.277-7.043-6.489l-0.945-0.856h-14.082l-0.959,0.928
		c-1.802,1.748-3.662,3.532-5.651,5.424c-1.659-1.606-3.47-3.354-5.634-5.433l-0.954-0.919h-14.661l-0.959,0.919
		c-1.258,1.208-2.516,2.413-3.773,3.621l-2.57,2.467l-1.012,0.973l-0.005,1.405l-0.049,31.094l-0.005,1.605l1.263,0.995
		c2.801,2.208,5.268,4.161,7.529,5.973l0.901,0.722l1.15,0.005c2.886,0.009,5.807,0.063,8.715,0.134
		c-1.752,1.936-3.572,3.966-5.432,6.062c-2.32-2.551-4.457-4.88-6.531-7.114l-0.994-1.075l-1.463,0.019
		c-3.871,0.044-7.793,0.155-11.655,0.33l-1.45,0.066l-0.928,1.11c-2.234,2.663-4.473,5.353-6.178,7.396l-0.767,0.924l0.005,1.204
		l0.08,15.518l0.004,1.388l1,0.968c1.788,1.735,3.612,3.523,5.535,5.433c-1.195,0.022-2.396,0.045-3.586,0.071l-2.873,0.063
		c-1.334-10.232-2.658-20.309-3.97-30.117l-0.183-1.392c0.855-0.058,1.717-0.124,2.568-0.178l3.074-0.192l0.021-3.077l0.232-32.379
		c1.098-0.009,2.189-0.022,3.287-0.031l3.252-0.026l0.018-3.256l0.022-4.153l0.026-4.152l0.018-3.318h-31.165l-0.036,3.265
		l-0.018,1.735c-1.338-1.343-2.658-2.686-3.938-4.001l-0.972-0.999h-14.253l-0.981,1.07c-1.293,1.414-2.578,2.841-3.845,4.26
		l0.022-1.989l0.045-3.341H50.243l0.433,3.684c2.623,22.285,5.031,42.478,7.364,61.742l0.473,3.907l3.765-1.146
		c2.689-0.82,5.424-1.623,8.118-2.391l1.931-0.544l1.914-0.522c2.712-0.74,5.482-1.467,8.229-2.158l2.164-0.545l0.303-2.208
		c1.222-8.898,2.476-17.859,3.76-26.829l-0.263,23.939l-0.045,4.175l4.077-0.919c4.519-1.021,9.095-1.976,13.667-2.851l0.031,2.516
		l0.031,2.971c-1.708-1.173-3.403-2.283-5.063-3.313l-1.209-0.75l-1.378,0.366c-3.979,1.053-7.989,2.19-11.914,3.386l-0.892,0.268
		l-0.62,0.7c-2.074,2.337-4.13,4.585-6.115,6.677l-0.905,0.955v27.775l1.61,0.959c2.373,1.414,4.831,2.979,7.306,4.661l0.838,0.57
		h12.587l0.91-0.74c1.708-1.387,3.461-2.863,5.241-4.402l0.018,1.873l0.036,3.27h57.404l-0.478-3.724
		c-0.111-0.888-0.228-1.767-0.339-2.654c1.574,1.682,3.207,3.435,4.951,5.316l0.977,1.062h14.836l0.98-1.074
		c1.812-1.98,3.895-4.256,5.955-6.504c1.99,2.177,3.971,4.345,5.951,6.504l0.98,1.074h14.813l0.977-1.043
		c1.575-1.673,3.118-3.306,4.621-4.876l-0.018,2.587l-0.026,3.332h17.931l0.031-3.27l0.026-2.636
		c2.008,1.789,3.965,3.506,5.83,5.107l0.928,0.798h12.877l0.938-0.829c2.199-1.94,4.385-3.81,6.508-5.563
		c2.127,1.972,4.232,3.854,6.267,5.594l0.928,0.798h14.287l0.892-0.695c2.142-1.664,4.269-3.229,6.329-4.661l1.419-0.981v-14.011
		l-1.169-0.99c-0.624-0.53-1.258-1.074-1.896-1.632l2.538,0.549v-4.091l0.004-6.039v-1.57l-0.923-0.959
		c-2.021-2.105-4.121-4.367-6.244-6.73l-0.62-0.688l-0.884-0.268c-3.746-1.128-7.556-2.208-11.324-3.202l-1.414-0.375l-1.227,0.799
		c-1.928,1.248-3.917,2.622-5.906,4.072l-0.071-0.081c-1.976-2.274-4.06-4.719-6.2-7.266l-0.245-0.299
		c1.507,0.263,3.015,0.526,4.505,0.803l4.461,0.821l-0.59-4.496c0-0.014-0.004-0.027-0.004-0.041
		c1.111,1.419,2.213,2.842,3.292,4.265l0.749,0.981l1.209,0.25c3.921,0.812,7.882,1.69,11.78,2.613l1.748,0.415l1.298-1.249
		c2.164-2.078,4.313-4.211,6.405-6.334l0.959-0.973l-0.013-1.369l-0.076-8.872l-0.076-8.827l-0.013-1.124l-0.691-0.883
		c-1.94-2.471-3.938-4.946-5.955-7.382c0.816,0.063,1.633,0.129,2.449,0.196l3.6,0.29l-0.031-3.613l-0.036-3.987l0.099,0.004
		c1.195,0.063,2.391,0.121,3.586,0.183l0.12,20.072l0.152,24.395l0.013,2.493l2.404,0.669c3.671,1.021,7.387,2.105,11.04,3.229
		l4.282,1.32l-0.01-4.482l-0.084-33.788l-0.031-12.927c0.994,0.059,1.989,0.121,2.983,0.179l3.502,0.214v-19.001H289.655z
		 M105.557,275.103c-3.198,0.335-6.437,0.687-9.644,1.062l-0.004-0.549c3.443-0.584,6.94-1.137,10.393-1.654l0.076-0.009
		l0.009,1.065L105.557,275.103z M110.352,230.646l-0.049,3.831c-1.374,0.201-2.757,0.406-4.144,0.616l0.031-2.364l0.04-3.354
		c1.165-0.125,2.324-0.25,3.475-0.366l0.669-0.071L110.352,230.646z M110.914,212.924l-1.659,0.116
		c-0.928,0.063-1.874,0.129-2.824,0.196l0.014-1.214l0.018-1.668c1.463-0.054,2.962-0.106,4.483-0.16L110.914,212.924z
		 M112.645,227.482l0.018-1.717l0.04-2.944c1.472,1.37,2.979,2.757,4.514,4.145c-1.32,0.143-2.636,0.29-3.948,0.441L112.645,227.482
		z M114.094,249.495l0.027-2.253l0.031-2.332c1.178,1.074,2.373,2.154,3.577,3.229l0.544,0.485
		C116.882,248.906,115.486,249.196,114.094,249.495z M144.744,223.634l-0.179,18.591l-0.022,2.159
		c-2.181,0.263-4.358,0.544-6.517,0.852l-2.533,0.356l-0.286,2.548c-1.436,12.899-2.752,24.657-3.997,35.63l-2.096,0.066
		c-1.543,0.054-3.118,0.107-4.699,0.161l-0.161-14.185l-0.205-18.354l-0.036-3.051c2.776-0.411,5.56-0.804,8.33-1.155l1.218-0.152
		l0.821-0.914c2.11-2.347,4.309-4.737,6.539-7.114l0.879-0.937l0.013-1.285l0.08-7.137l0.081-7.284l0.018-1.521l-1.142-0.999
		c-1.637-1.432-3.256-2.864-4.826-4.273c0.785-0.031,1.565-0.058,2.351-0.089l3.145-0.116l0.036-3.145l0.031-2.926
		c1.102-0.019,2.199-0.04,3.296-0.063L144.744,223.634z M189.933,268.096l-0.005,0.945c-1.432-1.472-2.77-2.846-4.045-4.144
		c0.865,0,1.73,0,2.596,0.004l1.459,0.009L189.933,268.096z M192.898,276.102l-0.57-0.004v-3.247v-0.929
		c1.355,1.401,2.707,2.806,4.055,4.211C195.223,276.119,194.063,276.11,192.898,276.102z M194.821,218.941l-0.005-1.508
		c3.306,0.026,6.625,0.071,9.89,0.129l0.013,1.566C201.432,219.044,198.109,218.981,194.821,218.941z M211.258,242.831
		c-3.229-0.24-6.503-0.437-9.754-0.584c1.352-1.151,2.702-2.302,4.054-3.448l0.892-0.758c1.664,1.628,3.293,3.229,4.863,4.795
		L211.258,242.831z M218.471,269.38c-1.057-1.115-2.189-2.306-3.43-3.613c0.727,0.045,1.453,0.09,2.176,0.134l1.281,0.085
		L218.471,269.38z M218.649,247.1l-0.014,2.123l-0.009,0.656c-1.044-1.209-2.092-2.413-3.141-3.627l-1.23-1.423l0.214,0.014
		c1.396,0.094,2.797,0.21,4.197,0.316L218.649,247.1z M232.418,243.117l-0.227,1.939c-0.933-0.129-1.869-0.254-2.806-0.374
		c1.093-0.968,2.149-1.914,3.181-2.837C232.517,242.27,232.468,242.693,232.418,243.117z M241.455,247.626
		c-1.578,1.316-3.193,2.699-4.821,4.131l0.031-3.172l0.018-1.637c1.61,0.196,3.229,0.401,4.849,0.615L241.455,247.626z
		 M261.22,273.381l1.28,0.183l-0.009,1.169l0.022,0.022l-0.594-0.059c-3.408-0.334-6.869-0.65-10.304-0.94l0.019-1.642
		C254.832,272.507,258.053,272.931,261.22,273.381z"/>
	<g>
		<rect x="33.119" y="136.967" width="323.078" height="76.395"/>
		<path d="M360.764,217.929H28.551v-85.529h332.212V217.929z M37.687,208.794h313.942v-67.26H37.687V208.794z"/>
	</g>
	<path d="M324.357,136.967l0.031,4.438l0.036,3.938c-1.883-2.293-3.792-4.581-5.705-6.829l-1.32-1.548h-19.31l-1.32,1.602
		c-2.618,3.171-5.308,6.355-7.997,9.465l-1.093,1.263l0.021,1.672l0.13,10.54l0.089,7.097c-1.235-9.232-2.489-18.524-3.76-27.828
		l-0.518-3.81h-28.141l-0.438,3.912c-0.651,5.856-1.312,11.718-1.977,17.574l-0.098-8.524l-0.018-1.878l-1.374-1.284
		c-2.983-2.792-6.142-5.705-9.394-8.658l-1.258-1.142h-18.774l-1.28,1.24c-2.404,2.328-4.884,4.71-7.538,7.234
		c-2.212-2.141-4.626-4.474-7.511-7.243l-1.276-1.231h-19.546l-1.275,1.227c-1.678,1.61-3.354,3.221-5.035,4.831l-3.426,3.287
		l-1.352,1.298v1.873l-0.067,41.46l-0.005,2.142l1.682,1.324c3.738,2.944,7.021,5.549,10.041,7.967l1.199,0.959l1.535,0.005
		c4.611,0.021,9.3,0.098,13.93,0.236l1.69,0.049l1.289-1.098c2.337-1.989,4.666-3.97,6.999-5.95l1.19-1.013
		c2.712,2.649,5.362,5.269,7.878,7.788l1.168,1.169l1.646,0.116c5.33,0.361,10.723,0.803,16.039,1.32l1.909,0.183l1.437-1.271
		c1.637-1.454,3.211-2.854,4.746-4.232c-0.067,0.566-0.135,1.133-0.201,1.694l-0.508,4.371l4.366,0.514
		c4.684,0.553,9.429,1.173,14.112,1.847l4.221,0.602v0.009l3.398,0.535c4.772,0.75,9.59,1.575,14.313,2.444l5.945,1.093
		l-0.784-5.994c-0.005-0.018-0.005-0.036-0.01-0.054c1.485,1.892,2.953,3.791,4.394,5.683l1,1.312l1.614,0.334
		c5.224,1.08,10.505,2.253,15.701,3.484l2.337,0.553l1.727-1.668c2.881-2.771,5.754-5.611,8.537-8.444l1.28-1.298l-0.019-1.824
		l-0.103-11.824l-0.103-11.771l-0.013-1.499l-0.924-1.182c-2.582-3.292-5.25-6.597-7.939-9.844c1.093,0.089,2.181,0.174,3.27,0.263
		l4.795,0.388l-0.04-4.813l-0.049-5.316l0.129,0.004c1.597,0.08,3.189,0.161,4.782,0.241l0.165,26.763l0.2,32.525l0.018,3.323
		l3.203,0.892c4.897,1.36,9.853,2.814,14.724,4.31l5.71,1.757l-0.014-5.973l-0.111-45.055l-0.045-17.23
		c1.329,0.075,2.654,0.156,3.979,0.236l4.67,0.285v-25.34H324.357z M197.912,170.095l-0.004-2.007
		c4.398,0.035,8.827,0.093,13.186,0.169l0.013,2.092C206.723,170.232,202.293,170.148,197.912,170.095z M292.671,182.633
		l-2.927-0.375c-0.343-2.6-0.691-5.205-1.039-7.814l0.397,0.438c2.457,2.716,4.901,5.481,7.288,8.243
		C295.15,182.959,293.91,182.794,292.671,182.633z M122.515,141.32l-0.027,2.319c-1.784-1.793-3.542-3.582-5.25-5.339l-1.298-1.334
		H96.939l-1.307,1.432c-1.727,1.887-3.439,3.787-5.13,5.679l0.036-2.649l0.054-4.461H5.139l0.575,4.915
		c3.497,29.712,6.708,56.64,9.822,82.322l0.629,5.215l5.022-1.534c3.586-1.094,7.226-2.164,10.821-3.181l2.578-0.731l2.547-0.696
		c3.617-0.985,7.311-1.958,10.977-2.881l2.881-0.723l0.406-2.944c1.624-11.864,3.301-23.814,5.009-35.772l-0.343,31.919
		l-0.063,5.566l5.433-1.227c8.341-1.887,16.838-3.604,25.251-5.103l3.582-0.643l0.045-3.635l0.04-3.109
		c1.57,1.432,3.167,2.868,4.772,4.305l1.552,1.387l2.056-0.321c5.259-0.82,10.598-1.579,15.871-2.248l1.624-0.209l1.097-1.214
		c2.81-3.127,5.745-6.32,8.718-9.482l1.173-1.254l0.018-1.713l0.107-9.514l0.111-9.715l0.022-2.025l-1.525-1.333
		c-2.188-1.914-4.342-3.818-6.439-5.696c1.048-0.045,2.092-0.08,3.136-0.121l4.195-0.155l0.049-4.193l0.045-3.898
		c1.463-0.031,2.926-0.058,4.389-0.085l-0.183,19.113l-0.236,24.787l-0.049,4.857l4.84-0.433c5.044-0.446,10.143-0.834,15.152-1.146
		l4.1-0.254l0.031-4.108l0.308-43.164c1.463-0.018,2.921-0.031,4.384-0.045l4.341-0.035l0.022-4.34l0.031-5.54l0.031-5.54
		l0.021-4.425H122.56L122.515,141.32z M85.284,185.702l-0.067,5.106c-1.833,0.268-3.675,0.54-5.522,0.821l0.04-3.153l0.054-4.47
		c1.552-0.165,3.1-0.33,4.63-0.486l0.892-0.094L85.284,185.702z M86.033,162.075l-2.208,0.151c-1.244,0.085-2.502,0.174-3.769,0.263
		l0.018-1.619l0.027-2.226c1.949-0.066,3.947-0.138,5.977-0.21L86.033,162.075z M89.178,181.389l-0.838,0.098l0.031-2.288
		l0.049-3.925c1.963,1.824,3.975,3.671,6.017,5.521C92.679,180.987,90.922,181.184,89.178,181.389z"/>
	<path d="M327.819,248.621c-0.835-0.709-1.682-1.437-2.529-2.182l3.381,0.736l0.004-5.455v-8.051v-0.321l0.005-1.775l-1.231-1.275
		c-2.693-2.806-5.495-5.83-8.327-8.979l-0.825-0.914l-1.178-0.357c-4.996-1.507-10.076-2.943-15.099-4.272l-1.887-0.495
		l-1.633,1.062c-2.573,1.668-5.223,3.497-7.882,5.433l-0.089-0.107c-2.636-3.033-5.415-6.289-8.265-9.692l-0.978-1.164l-1.485-0.313
		c-5.339-1.128-10.767-2.172-16.142-3.108l-2.004-0.348l-1.564,1.302c-2.105,1.753-4.26,3.6-6.433,5.509l0.045-4.232l0.036-3.854
		l-3.818-0.544c-5.086-0.727-10.255-1.374-15.362-1.923l-4.835-0.521l-0.04,4.862l-0.022,2.837l-0.009,0.874
		c-1.396-1.61-2.788-3.226-4.188-4.84l-2.641-3.051l-1.187-1.369l-1.812-0.139c-5.143-0.384-10.365-0.687-15.526-0.896l-2.052-0.085
		l-1.383,1.521c-2.613,2.881-5.365,5.945-8.172,9.112c-3.091-3.403-5.941-6.508-8.707-9.487l-1.324-1.432l-1.949,0.022
		c-5.16,0.058-10.389,0.209-15.54,0.441l-1.931,0.089l-1.245,1.481c-2.976,3.55-5.959,7.132-8.229,9.857l-1.03,1.235l0.009,1.605
		l0.107,20.688l0.008,1.852l1.33,1.289c2.387,2.314,4.816,4.701,7.382,7.248c-1.597,0.027-3.194,0.059-4.782,0.094l-3.831,0.08
		c-1.774-13.64-3.546-27.075-5.29-40.157l-0.558-4.197l-4.219,0.396c-6.892,0.656-13.859,1.477-20.712,2.445l-3.381,0.481
		l-0.375,3.39c-1.913,17.204-3.675,32.878-5.33,47.509l-2.796,0.093c-2.061,0.067-4.153,0.139-6.263,0.21l-0.214-18.912
		l-0.276-24.47l-0.058-5.29l-5.188,1.017c-5.063,0.994-10.174,2.088-15.197,3.252l-3.443,0.798l0.04,3.537l0.041,3.961
		c-2.275-1.561-4.537-3.046-6.749-4.416l-1.615-0.999l-1.833,0.486c-5.304,1.4-10.651,2.922-15.888,4.514l-1.191,0.361l-0.821,0.928
		c-2.766,3.118-5.513,6.115-8.154,8.908l-1.208,1.271v37.035l2.15,1.279c3.158,1.883,6.437,3.97,9.737,6.209l1.119,0.759h16.785
		l1.213-0.981c2.275-1.847,4.612-3.818,6.985-5.874l0.026,2.502l0.045,4.354h76.539l-0.638-4.96
		c-0.151-1.183-0.304-2.359-0.455-3.537c2.101,2.239,4.282,4.576,6.602,7.087l1.307,1.41h19.778l1.311-1.428
		c2.414-2.641,5.192-5.678,7.939-8.671c2.65,2.899,5.295,5.794,7.936,8.676l1.303,1.423h19.755l1.308-1.388
		c2.092-2.229,4.152-4.402,6.159-6.499l-0.026,3.448l-0.035,4.438h23.907l0.045-4.358l0.036-3.515
		c2.676,2.391,5.285,4.679,7.773,6.815l1.236,1.058h17.163l1.249-1.102c2.936-2.588,5.853-5.081,8.681-7.414
		c2.837,2.623,5.646,5.135,8.354,7.458l1.235,1.058h19.051l1.195-0.924c2.85-2.217,5.687-4.304,8.435-6.213l1.892-1.312v-18.681
		L327.819,248.621z M78.888,244.981c-4.264,0.441-8.582,0.914-12.859,1.414l-0.005-0.731c4.595-0.776,9.256-1.521,13.863-2.208
		l0.094-0.014l0.018,1.423L78.888,244.981z M191.392,235.632l-0.005,1.263c-1.908-1.963-3.693-3.792-5.396-5.526
		c1.154,0,2.311,0.004,3.465,0.013l1.941,0.01L191.392,235.632z M195.348,246.311l-0.763-0.005v-4.326l0.005-1.24
		c1.802,1.869,3.604,3.738,5.406,5.611C198.447,246.333,196.896,246.319,195.348,246.311z M229.443,237.345
		c-1.414-1.48-2.917-3.068-4.572-4.813c0.969,0.058,1.937,0.116,2.9,0.179l1.707,0.111L229.443,237.345z M287.376,244.438
		c-4.541-0.442-9.157-0.866-13.733-1.254l0.021-2.19c4.265,0.522,8.551,1.093,12.775,1.69l1.713,0.241l-0.019,1.562l0.031,0.031
		L287.376,244.438z M292.336,250.45l-1.008-0.081l0.018-1.503l0.014-1.235c1.048,1.013,2.087,2.012,3.122,2.988
		C293.764,250.562,293.05,250.508,292.336,250.45z"/>
	<linearGradient id="SVGID_1_" gradientUnits="userSpaceOnUse" x1="185.9351" y1="221.6973" x2="185.9351" y2="143.1309">
		<stop  offset="0" style="stop-color:#7E5A14"/>
		<stop  offset="0.1152" style="stop-color:#AD822A"/>
		<stop  offset="0.2727" style="stop-color:#F6CE6F"/>
		<stop  offset="0.503" style="stop-color:#F6CE6F"/>
		<stop  offset="0.5636" style="stop-color:#FFFCEB"/>
		<stop  offset="0.6909" style="stop-color:#FFF1B5"/>
		<stop  offset="0.9333" style="stop-color:#AD822A"/>
	</linearGradient>
	<path fill="url(#SVGID_1_)" d="M359.805,143.131v12.628c-2.266-0.134-4.527-0.268-6.793-0.397l-1.869-0.106l0.005,1.869
		l0.08,32.534l0.075,32.039c-3.751-1.133-7.542-2.243-11.315-3.301l-0.38-62.116l-0.009-1.663l-1.659-0.085
		c-2.427-0.13-4.857-0.25-7.284-0.37l-0.044-5.589l-0.045-5.442H359.805 M314.554,143.131c2.627,3.092,5.236,6.249,7.774,9.403
		l0.103,11.138c-3.608-0.286-7.244-0.566-10.848-0.83l-0.085-7.903l-0.018-1.669l-1.669-0.071c-1.008-0.044-2.016-0.085-3.02-0.129
		l-1.855-0.076l0.018,1.86l0.081,7.043l0.08,7.052l0.018,1.437l1.409,0.271c2.703,0.526,5.451,1.071,8.168,1.629
		c2.908,3.479,5.794,7.038,8.595,10.598l0.196,22.267c-2.359,2.391-4.781,4.786-7.217,7.142c-4.737-1.115-9.541-2.177-14.291-3.167
		c-2.601-3.408-5.277-6.825-7.971-10.179l-0.072-5.643l-0.053-4.296c3.809,0.5,7.653,1.03,11.463,1.588l0.036,3.252l0.053,4.781
		l0.019,1.459l1.44,0.254c0.999,0.179,1.998,0.357,2.997,0.54l2.102,0.379l-0.022-2.132l-0.085-7.382l-0.08-7.383l-0.014-1.392
		l-1.36-0.308c-2.569-0.575-5.183-1.146-7.779-1.695c-2.783-3.251-5.655-6.521-8.551-9.728l-0.12-9.84l-0.125-9.845
		c2.4-2.778,4.791-5.611,7.124-8.426H314.554 M278.263,143.131c2.909,21.353,5.736,42.535,8.417,63.026
		c-3.568-0.643-7.163-1.253-10.731-1.824c-0.308-3.488-0.616-6.967-0.923-10.441l-0.125-1.414l-1.405-0.179
		c-1.9-0.245-3.827-0.481-5.723-0.705l-1.815-0.219l-0.147,1.82c-0.259,3.176-0.518,6.343-0.776,9.501
		c-3.541-0.495-7.119-0.964-10.669-1.392c2.229-19.096,4.465-38.646,6.65-58.174H278.263 M274.244,183.766l-0.178-2.101
		c-0.696-8.403-1.396-16.771-2.097-25.104l-0.13-1.557l-1.561-0.054l-0.361-0.013l-0.531-0.019l-1.734-0.066l-0.086,1.739
		c-0.4,8.274-0.798,16.518-1.199,24.733l-0.085,1.682l1.682,0.156c1.392,0.129,2.788,0.263,4.18,0.396L274.244,183.766
		 M238.564,143.131c2.852,2.588,5.625,5.147,8.275,7.623l0.463,41.425l0.01,0.999c-2.328,2.109-4.742,4.269-7.334,6.57
		c-4.906-0.469-9.875-0.875-14.79-1.218c-2.493-2.493-5.112-5.081-7.792-7.694l-0.135-21.5l-0.115-18.992
		c2.631-2.502,5.103-4.875,7.52-7.213H238.564 M235.604,191.51l-0.018-1.905l-0.34-36.865v-0.04l-0.018-1.713l-1.717-0.031
		c-0.981-0.014-1.959-0.027-2.939-0.045l-1.807-0.026l0.018,1.802l0.16,18.377l0.166,18.377l0.014,1.637l1.632,0.107
		c0.981,0.063,1.968,0.13,2.952,0.196L235.604,191.51 M202.083,143.131c2.81,2.703,5.206,5.01,7.444,7.182l0.063,11.758
		c-3.729-0.063-7.488-0.111-11.209-0.143l-0.018-8.568l-0.005-1.013l-0.005-1.753l-1.748-0.005
		c-1.039-0.004-2.083-0.009-3.122-0.009l-1.767-0.004v1.766l0.063,35.675v1.739l1.74,0.019c1.043,0.013,2.092,0.026,3.135,0.044
		l1.793,0.027l-0.004-1.793l-0.018-7.182l-0.01-4.607c3.734,0.049,7.508,0.12,11.25,0.209l0.076,14.127l-1.419,1.204
		c-2.19,1.86-4.38,3.725-6.575,5.589c-4.246-0.116-8.541-0.188-12.792-0.214c-2.766-2.208-5.696-4.536-8.93-7.083l0.036-19.885
		l0.031-19.97l2.742-2.636c1.557-1.49,3.113-2.984,4.666-4.475H202.083 M157.92,143.131l-0.021,3.765l-0.019,3.805
		c-2.328,0.022-4.657,0.05-6.985,0.076l-1.726,0.022l-0.014,1.727l-0.169,23.742l-0.161,22.106
		c-3.898,0.254-7.837,0.549-11.744,0.883l0.218-22.32l0.232-24.162l0.018-1.807l-1.811,0.027c-2.386,0.045-4.777,0.085-7.168,0.134
		l0.089-7.998H157.92 M113.34,143.131c2.422,2.484,4.938,5.031,7.502,7.579l-0.098,8.765c-3.618,0.138-7.271,0.29-10.911,0.445
		l0.027-2.234l0.054-4.305l0.022-1.828l-1.829,0.049c-1.008,0.026-2.021,0.054-3.028,0.08l-1.691,0.049l-0.022,1.691l-0.156,12.645
		l-0.022,1.709l1.708,0.071c2.726,0.111,5.451,0.223,8.171,0.339c2.65,2.396,5.344,4.791,8.208,7.302l-0.098,8.805l-0.098,8.93
		c-2.685,2.864-5.339,5.75-7.899,8.596c-4.849,0.62-9.746,1.315-14.572,2.061c-2.494-2.23-4.947-4.46-7.311-6.646l0.129-9.902
		c3.827-0.438,7.69-0.853,11.53-1.235l-0.026,2.064l-0.054,4.523l-0.027,2.003l1.989-0.232c1.008-0.116,2.016-0.231,3.029-0.348
		l1.543-0.174l0.018-1.553l0.085-6.517l0.08-6.513l0.022-1.793l-1.793,0.009c-2.534,0.014-5.121,0.036-7.694,0.063
		c-2.743-2.462-5.442-4.933-8.042-7.354l0.125-9.421l0.121-9.55c2.382-2.703,4.839-5.45,7.324-8.172H113.34 M84.352,143.131
		l-0.116,9.202c-2.859,0.099-5.728,0.205-8.551,0.313l-1.673,0.063l-0.022,1.673l-0.156,12.828l-0.022,1.922l1.914-0.143
		c2.208-0.169,4.425-0.33,6.615-0.481l-0.116,9.046c-2.342,0.245-4.684,0.499-6.985,0.758l-1.543,0.174l-0.022,1.553l-0.103,8.608
		l-0.098,8.118l-0.027,2.092l2.065-0.33c2.913-0.468,5.852-0.919,8.773-1.352l-0.053,4.43l-0.063,4.701
		c-7.307,1.32-14.666,2.806-21.919,4.411l0.361-33.596l0.37-33.989H84.352 M55.702,143.131c-3.542,23.779-6.99,47.843-10.25,71.582
		c-2.623,0.664-5.259,1.355-7.873,2.056c-0.588-8.417-1.182-16.896-1.775-25.434l-0.138-1.953l-1.923,0.343l-0.883,0.156
		l-1.334,0.236l-0.111,1.352c-0.781,9.416-1.543,18.712-2.262,27.638c-2.583,0.74-5.183,1.503-7.752,2.274
		c-2.975-24.581-6.035-50.225-9.336-78.25h10.206c1.262,12.958,2.431,24.943,3.577,36.59l0.179,1.815l1.811-0.246l0.334-0.044
		l0.281-0.04l1.472-0.201l0.053-1.48c0.424-12.182,0.856-24.31,1.289-36.394h5.027c0.401,11.704,0.798,23.351,1.195,34.939
		l0.067,1.931l1.914-0.245l0.615-0.076l1.378-0.174l0.152-1.383c1.271-11.539,2.587-23.306,3.916-34.992H55.702"/>
	<path fill="#FFFFFF" d="M126.791,152.927c2.993-0.063,5.986-0.116,8.979-0.17c-0.156,16.143-0.312,32.285-0.464,48.423
		c5.085-0.45,10.174-0.839,15.269-1.155c0.115-15.826,0.227-31.656,0.338-47.486c2.908-0.035,5.813-0.066,8.717-0.094
		c0.021-3.688,0.039-7.382,0.063-11.075h-32.776C126.875,145.223,126.835,149.072,126.791,152.927z M104.968,166.089
		c0.054-4.215,0.107-8.43,0.161-12.646c1.008-0.031,2.016-0.058,3.024-0.084c-0.031,2.801-0.067,5.602-0.103,8.407
		c4.809-0.218,9.622-0.414,14.434-0.593c0.041-3.729,0.085-7.458,0.125-11.187c-2.846-2.828-5.687-5.696-8.528-8.618H98.879
		c-2.766,3.024-5.531,6.106-8.301,9.26c-0.085,6.803-0.174,13.601-0.259,20.398c3.042,2.85,6.088,5.633,9.139,8.367
		c2.788-0.031,5.58-0.054,8.373-0.066c-0.054,4.344-0.107,8.685-0.161,13.028c-1.013,0.116-2.025,0.232-3.038,0.349
		c0.036-2.851,0.071-5.705,0.107-8.556c-5.022,0.491-10.041,1.026-15.054,1.61c-0.054,4.077-0.107,8.153-0.161,12.23
		c2.841,2.632,5.683,5.215,8.528,7.757c5.326-0.834,10.656-1.588,15.995-2.266c2.926-3.257,5.852-6.437,8.783-9.555
		c0.067-6.409,0.143-12.819,0.214-19.229c-3.095-2.708-6.182-5.451-9.264-8.243C110.842,166.33,107.907,166.205,104.968,166.089z
		 M85.975,154.032c0.054-4.22,0.107-8.443,0.161-12.663H61.242c-0.259,23.851-0.522,47.7-0.781,71.551
		c8.453-1.909,16.937-3.622,25.447-5.144c0.058-4.215,0.112-8.43,0.165-12.641c-3.617,0.521-7.235,1.07-10.843,1.65
		c0.071-5.576,0.138-11.151,0.205-16.727c2.841-0.321,5.687-0.625,8.533-0.919c0.053-4.175,0.107-8.351,0.156-12.525
		c-2.841,0.196-5.687,0.401-8.533,0.616c0.054-4.278,0.107-8.551,0.161-12.829C79.16,154.273,82.567,154.153,85.975,154.032z
		 M39.868,177.932c-0.205,0.026-0.415,0.054-0.62,0.08c-0.415-12.15-0.83-24.362-1.249-36.643h-8.43
		c-0.455,12.646-0.905,25.345-1.352,38.093c-0.205,0.026-0.41,0.058-0.616,0.084c-1.235-12.547-2.475-25.272-3.733-38.177H10.089
		c3.346,28.467,6.611,55.872,9.813,82.309c3.626-1.11,7.262-2.177,10.906-3.211c0.78-9.692,1.57-19.31,2.359-28.854
		c0.294-0.054,0.584-0.103,0.879-0.156c0.646,9.26,1.289,18.452,1.927,27.574c3.68-1.004,7.369-1.972,11.062-2.903
		c3.533-25.751,7.11-50.64,10.709-74.758H43.962C42.588,153.399,41.224,165.585,39.868,177.932z M196.65,174.483
		c0.009,4.523,0.021,9.046,0.031,13.573c-1.049-0.018-2.097-0.031-3.145-0.04l-0.059-35.679c1.039,0.004,2.079,0.009,3.123,0.013
		c0.004,3.773,0.014,7.548,0.021,11.325c4.912,0.036,9.826,0.099,14.738,0.184c-0.027-4.765-0.049-9.528-0.076-14.296
		c-2.837-2.748-5.665-5.478-8.492-8.194h-16c-2.814,2.703-5.634,5.406-8.462,8.118c-0.022,13.823-0.044,27.642-0.067,41.465
		c3.355,2.636,6.709,5.294,10.072,7.988c4.68,0.018,9.362,0.098,14.037,0.231c3.051-2.596,6.098-5.183,9.135-7.766
		c-0.026-5.549-0.058-11.098-0.089-16.65C206.499,174.627,201.57,174.537,196.65,174.483z M239.248,141.369h-15.295
		c-2.851,2.766-5.71,5.504-8.573,8.221c0.085,13.997,0.174,27.994,0.259,41.991c2.922,2.846,5.843,5.727,8.77,8.662
		c5.393,0.365,10.78,0.812,16.164,1.329c2.842-2.521,5.678-5.059,8.516-7.619c-0.17-14.656-0.335-29.313-0.496-43.976
		C245.475,147.061,242.356,144.192,239.248,141.369z M230.866,189.426c-0.106-12.252-0.214-24.505-0.321-36.754
		c0.977,0.014,1.959,0.031,2.939,0.045c0.111,12.302,0.229,24.604,0.344,36.905C232.838,189.556,231.856,189.488,230.866,189.426z
		 M259.439,141.369c-2.323,20.817-4.665,41.291-7.024,61.475c4.745,0.562,9.487,1.182,14.22,1.859
		c0.313-3.777,0.62-7.564,0.928-11.365c1.904,0.228,3.805,0.464,5.709,0.705c0.349,3.93,0.691,7.868,1.039,11.815
		c4.818,0.759,9.626,1.579,14.431,2.462c-2.98-22.814-5.964-45.112-8.943-66.951H259.439z M268.125,181.411
		c0.4-8.217,0.798-16.459,1.199-24.733c0.295,0.009,0.594,0.022,0.888,0.031c0.7,8.332,1.401,16.7,2.101,25.104
		C270.917,181.674,269.521,181.54,268.125,181.411z M361.566,141.369h-32.775c0.04,4.822,0.08,9.644,0.116,14.47
		c2.979,0.143,5.959,0.295,8.938,0.45c0.13,21.147,0.264,42.299,0.393,63.446c4.956,1.383,9.902,2.827,14.836,4.344
		c-0.059-22.319-0.111-44.64-0.165-66.96c2.886,0.165,5.771,0.335,8.657,0.509V141.369z M315.669,170.684
		c-2.931-0.603-5.861-1.187-8.792-1.753c-0.054-4.701-0.107-9.398-0.16-14.1c1.008,0.04,2.016,0.085,3.02,0.125l0.106,9.522
		c4.791,0.349,9.577,0.719,14.363,1.103c-0.04-4.559-0.08-9.117-0.121-13.676c-2.903-3.613-5.807-7.119-8.715-10.536h-15.206
		c-2.689,3.256-5.375,6.437-8.061,9.546c0.085,7.003,0.175,14.01,0.264,21.013c3.118,3.448,6.235,6.989,9.349,10.639
		c2.784,0.589,5.567,1.19,8.346,1.815c0.054,4.924,0.107,9.844,0.161,14.769c-1.004-0.184-2.008-0.361-3.011-0.54
		c-0.036-3.181-0.071-6.36-0.107-9.541c-4.991-0.736-9.991-1.423-14.996-2.069c0.054,4.192,0.107,8.381,0.16,12.574
		c2.908,3.612,5.816,7.323,8.721,11.142c5.29,1.093,10.563,2.262,15.825,3.506c2.819-2.712,5.634-5.49,8.453-8.354l-0.205-23.6
		C321.936,178.284,318.805,174.426,315.669,170.684z"/>
	<linearGradient id="SVGID_2_" gradientUnits="userSpaceOnUse" x1="185.8257" y1="270.9053" x2="185.8257" y2="206.8799">
		<stop  offset="0" style="stop-color:#7E5A14"/>
		<stop  offset="0.1152" style="stop-color:#AD822A"/>
		<stop  offset="0.2727" style="stop-color:#F6CE6F"/>
		<stop  offset="0.503" style="stop-color:#F6CE6F"/>
		<stop  offset="0.5636" style="stop-color:#FFFCEB"/>
		<stop  offset="0.6909" style="stop-color:#FFF1B5"/>
		<stop  offset="0.9333" style="stop-color:#AD822A"/>
	</linearGradient>
	<path fill="url(#SVGID_2_)" d="M180.004,206.88c2.462,2.663,5,5.429,7.721,8.417l-0.004,9.911c-0.629,0-1.258,0-1.883,0
		c-3.028,0-6.088,0.022-9.126,0.063l-0.005-2.739l-0.008-4.478l-0.005-1.793l-1.794,0.035c-1.021,0.022-2.042,0.045-3.063,0.067
		l-1.718,0.044l0.005,1.722l0.018,6.718l0.019,6.718v1.614l1.609,0.134c2.699,0.224,5.46,0.473,8.212,0.731
		c2.561,2.605,5.335,5.442,8.444,8.645l-0.019,19.871c-2.632,2.864-5.29,5.768-7.646,8.346h-14.371
		c-2.726-2.943-5.25-5.646-7.686-8.234l-0.053-9.96c3.844-0.075,7.716-0.138,11.557-0.183l0.021,7.315l0.005,1.766l1.767-0.009
		c1.008-0.009,2.016-0.013,3.028-0.018l1.753-0.009l-0.004-1.758v-1.084l-0.027-12.868l-0.004-1.633l-1.624-0.12
		c-2.596-0.191-5.2-0.379-7.757-0.549c-2.926-2.917-5.674-5.62-8.354-8.225l-0.05-9.157l-0.054-10.152
		c2.213-2.654,4.755-5.7,7.315-8.761C170.797,207.072,175.423,206.938,180.004,206.88 M204.871,207.246
		c4.58,0.196,9.201,0.464,13.77,0.798l2.564,2.962c1.727,1.994,3.447,3.983,5.17,5.968l-0.072,9.47
		c-3.648-0.223-7.328-0.415-10.985-0.58l0.031-6.503l0.005-0.705l0.008-1.682l-1.682-0.084c-1.017-0.054-2.038-0.103-3.059-0.147
		l-1.83-0.08l-0.008,1.833l-0.031,6.668l-0.027,6.669l-0.009,1.548l1.53,0.205c2.689,0.365,5.455,0.754,8.233,1.159
		c2.364,2.494,5.349,5.647,8.413,8.858l-0.135,18.378l-0.004,0.834c-2.488,2.578-5.014,5.236-7.699,8.091h-14.38
		c-2.538-2.77-5.071-5.549-7.618-8.332l0.008-5.558l0.01-4.532c3.822,0.031,7.699,0.081,11.557,0.147l-0.014,2.774l-0.018,4.514
		l-0.009,1.749l1.749,0.018c1.008,0.014,2.02,0.022,3.028,0.036l1.771,0.021l0.01-1.774v-0.031l0.07-13.774l0.005-1.588
		l-1.579-0.169c-2.592-0.281-5.201-0.558-7.762-0.816c-2.773-2.887-5.549-5.776-8.332-8.658l0.036-19.559
		C200.129,212.505,202.52,209.837,204.871,207.246 M141.787,209.008c2.676,20.081,5.397,40.885,8.091,61.897h-10.785
		c-0.281-3.386-0.567-6.771-0.852-10.147l-0.138-1.646l-1.65,0.035c-1.9,0.036-3.8,0.076-5.701,0.12l-1.588,0.036l-0.129,1.579
		l-0.245,2.988l-0.584,7.034h-10.542c2.074-18.194,4.282-37.807,6.735-59.837C130.158,210.27,135.993,209.583,141.787,209.008
		 M129.534,250.727l1.94-0.09c1.392-0.063,2.788-0.125,4.184-0.183l1.824-0.08l-0.147-1.82c-0.665-8.386-1.329-16.744-1.998-25.076
		l-0.143-1.771l-1.771,0.155l-0.063,0.005l-0.834,0.076l-1.521,0.138l-0.076,1.525l-1.298,25.18L129.534,250.727 M235.831,209.637
		c3.894,0.437,7.814,0.928,11.695,1.468l-0.299,30.001l-0.299,29.8h-11.597l0.249-30.786L235.831,209.637 M263.41,213.602
		c4.84,0.853,9.719,1.793,14.523,2.797c2.578,3.078,5.098,6.035,7.502,8.805l-0.063,6.219l-0.054,4.879
		c-3.697-0.513-7.422-0.994-11.115-1.449l0.05-4.229l0.066-5.808l0.018-1.521l-1.503-0.237c-1.04-0.165-2.079-0.33-3.118-0.485
		l-2.002-0.309l-0.027,2.025l-0.215,19.372l-0.2,17.609l-0.018,1.722l1.718,0.063c1.034,0.036,2.068,0.071,3.108,0.111l1.807,0.067
		l0.018-1.807l0.081-6.954l0.057-5.071c3.689,0.316,7.418,0.656,11.125,1.013l-0.071,6.593l-0.076,7.012
		c-2.627,2.172-5.334,4.482-8.064,6.887h-12.552c-2.805-2.413-5.744-5-8.751-7.708l0.223-21.628l0.228-21.651
		C258.57,217.719,261.023,215.601,263.41,213.602 M97.407,215.645l0.246,21.816l0.272,23.957l0.018,1.811l1.806-0.066
		c2.935-0.111,5.941-0.219,8.952-0.316l0.04,3.742l0.049,4.317H86.439l-0.566-52.785C89.691,217.246,93.558,216.416,97.407,215.645
		 M301.199,221.934c4.563,1.214,9.157,2.517,13.666,3.872c2.592,2.877,5.161,5.647,7.65,8.247l-0.005,5.486
		c-3.537-0.754-7.109-1.485-10.669-2.181l0.013-1.927l0.022-3.297l0.009-1.404l-1.373-0.321c-0.995-0.228-1.994-0.46-2.993-0.683
		l-2.132-0.481l-0.014,2.186l-0.036,5.08l-0.04,5.071l-0.009,1.388l1.347,0.334c2.681,0.669,5.455,1.365,8.257,2.074
		c2.81,2.605,5.603,5.094,8.318,7.409v12.609c-2.448,1.718-4.951,3.568-7.467,5.509h-14.661c-2.422-2.087-4.916-4.317-7.427-6.642
		l0.04-4.3l0.036-3.221c3.809,0.304,7.649,0.629,11.449,0.968l-0.04,5.246l-0.009,1.682l1.678,0.089
		c1.003,0.054,2.011,0.107,3.011,0.161l1.847,0.098l0.013-1.847l0.019-3.332l0.044-7.025l0.009-1.485l-1.463-0.259
		c-2.596-0.459-5.196-0.914-7.797-1.369c-2.653-2.439-5.396-5.04-8.167-7.748l0.151-14.915l0.005-0.424
		C296.743,224.94,298.995,223.379,301.199,221.934 M70.386,221.952c2.284,1.432,4.621,2.979,6.963,4.616l0.112,11.021
		c-3.68,0.558-7.378,1.146-11.035,1.758l-0.054-7.194l-0.004-0.741l-0.014-2.186l-2.132,0.478c-1.03,0.232-2.056,0.469-3.082,0.705
		l-1.374,0.321l0.013,1.404l0.098,15.505l0.098,15.5l0.009,1.847l1.847-0.098c1.03-0.054,2.065-0.112,3.1-0.165l1.682-0.09
		l-0.013-1.682l-0.076-10.41c3.671-0.429,7.386-0.844,11.08-1.231l0.125,12.512l0.004,0.424c-2.659,2.337-5.29,4.572-7.851,6.659
		H57.179c-2.953-1.989-5.883-3.867-8.738-5.589V234.24c2.44-2.582,4.951-5.33,7.48-8.176
		C60.702,224.619,65.564,223.236,70.386,221.952"/>
	<path fill="#FFFFFF" d="M122.801,209.512c-2.386,21.419-4.755,42.49-7.114,63.155h14.142c0.321-3.871,0.643-7.752,0.959-11.637
		c1.9-0.045,3.8-0.085,5.701-0.125c0.33,3.916,0.66,7.832,0.986,11.762h14.402c-2.827-22.093-5.687-43.976-8.568-65.573
		C136.461,207.741,129.623,208.548,122.801,209.512z M131.394,248.875c0.428-8.367,0.861-16.762,1.293-25.179
		c0.299-0.027,0.598-0.054,0.892-0.081c0.669,8.332,1.338,16.691,2.002,25.077C134.186,248.755,132.79,248.813,131.394,248.875z
		 M99.687,261.4c-0.183-15.964-0.361-31.933-0.54-47.896c-5.031,0.985-10.049,2.061-15.049,3.221l0.598,55.942h25.875
		c-0.045-3.88-0.085-7.761-0.125-11.642C106.854,261.142,103.269,261.267,99.687,261.4z M64.752,250.976l0.084,11.99
		c-1.035,0.054-2.069,0.111-3.104,0.165c-0.063-10.335-0.129-20.67-0.196-31.005c1.026-0.236,2.047-0.473,3.073-0.704
		c0.022,3.336,0.044,6.673,0.071,10.004c4.844-0.825,9.697-1.597,14.559-2.323l-0.138-13.457c-2.819-1.989-5.629-3.854-8.43-5.589
		c-5.268,1.392-10.513,2.881-15.736,4.469c-2.748,3.101-5.5,6.106-8.252,9.015v32.775c3.305,1.972,6.624,4.091,9.956,6.352h13.872
		c3.002-2.439,5.995-4.986,8.988-7.632c-0.049-5.228-0.103-10.45-0.156-15.674C74.472,249.865,69.605,250.4,64.752,250.976z
		 M233.557,272.667h15.115c0.211-21.031,0.42-42.062,0.629-63.089c-5.063-0.722-10.133-1.355-15.214-1.904
		C233.908,229.338,233.734,251.003,233.557,272.667z M262.91,211.729c-2.85,2.373-5.705,4.84-8.56,7.396
		c-0.156,14.951-0.312,29.898-0.468,44.85c3.291,2.971,6.578,5.87,9.866,8.693h13.872c3.056-2.698,6.106-5.304,9.152-7.81
		c0.059-5.349,0.116-10.692,0.17-16.04c-4.875-0.478-9.755-0.919-14.639-1.329c-0.055,4.639-0.107,9.277-0.156,13.921
		c-1.04-0.04-2.074-0.08-3.113-0.116c0.138-12.328,0.275-24.657,0.414-36.981c1.039,0.156,2.074,0.321,3.109,0.486
		c-0.045,3.867-0.09,7.738-0.13,11.61c4.885,0.589,9.76,1.227,14.631,1.913c0.049-4.589,0.098-9.179,0.146-13.769
		c-2.77-3.186-5.539-6.441-8.313-9.751C273.58,213.683,268.25,212.656,262.91,211.729z M171.917,231.56
		c-0.009-4.479-0.022-8.956-0.031-13.435c1.017-0.027,2.034-0.049,3.051-0.067c0.005,2.998,0.014,6,0.019,9.001
		c4.84-0.08,9.684-0.106,14.523-0.08c0.004-4.121,0.008-8.238,0.008-12.359c-2.903-3.194-5.812-6.37-8.725-9.51
		c-5.129,0.058-10.264,0.205-15.389,0.437c-2.747,3.279-5.49,6.566-8.225,9.849c0.035,6.896,0.071,13.792,0.107,20.688
		c3.113,3.023,6.227,6.093,9.336,9.192c2.801,0.183,5.602,0.384,8.398,0.594c0.009,4.647,0.018,9.3,0.031,13.952
		c-1.013,0.004-2.021,0.009-3.033,0.018l-0.021-9.09c-5.027,0.049-10.059,0.129-15.082,0.236c0.019,4.13,0.041,8.261,0.063,12.391
		c2.896,3.069,5.785,6.169,8.672,9.291h15.919c2.868-3.14,5.745-6.284,8.632-9.42c0.004-7.093,0.008-14.185,0.018-21.272
		c-3.132-3.225-6.263-6.437-9.398-9.621C177.832,232.072,174.875,231.805,171.917,231.56z M315.763,243.781
		c-2.899-0.736-5.799-1.463-8.703-2.186c0.027-3.386,0.05-6.767,0.076-10.152c0.995,0.224,1.984,0.451,2.979,0.683
		c-0.014,2.226-0.026,4.456-0.04,6.682c4.741,0.915,9.479,1.887,14.197,2.908c0-2.787,0.005-5.58,0.005-8.372
		c-2.814-2.926-5.625-5.959-8.431-9.081c-4.964-1.499-9.951-2.908-14.951-4.233c-2.712,1.762-5.438,3.648-8.167,5.651
		c-0.058,5.656-0.116,11.316-0.174,16.973c3.042,2.979,6.084,5.874,9.126,8.662c2.77,0.481,5.54,0.968,8.306,1.454
		c-0.022,3.456-0.045,6.909-0.067,10.361c-1.004-0.054-2.012-0.107-3.016-0.16c0.019-2.289,0.036-4.581,0.05-6.869
		c-4.982-0.451-9.97-0.87-14.965-1.263c-0.031,3.395-0.067,6.789-0.103,10.188c2.846,2.641,5.691,5.192,8.546,7.641h15.915
		c2.886-2.243,5.763-4.362,8.626-6.352v-14.34C321.896,249.366,318.826,246.627,315.763,243.781z M210.482,231.841
		c0.021-4.447,0.04-8.895,0.058-13.342c1.021,0.05,2.034,0.094,3.051,0.147c-0.013,2.967-0.026,5.938-0.04,8.903
		c4.836,0.205,9.67,0.459,14.501,0.768c0.026-3.997,0.058-7.993,0.085-11.994c-2.873-3.319-5.754-6.646-8.641-9.983
		c-5.12-0.383-10.245-0.678-15.375-0.887c-2.77,3.046-5.53,6.133-8.291,9.251c-0.014,6.976-0.027,13.956-0.041,20.937
		c3.101,3.207,6.188,6.424,9.273,9.635c2.801,0.286,5.598,0.575,8.395,0.879c-0.021,4.604-0.045,9.206-0.071,13.805
		c-1.008-0.009-2.017-0.021-3.028-0.031c0.014-3.011,0.026-6.017,0.04-9.027c-5.026-0.09-10.05-0.156-15.081-0.188
		c-0.004,4.18-0.014,8.363-0.021,12.543c2.877,3.145,5.74,6.284,8.604,9.411h15.915c2.895-3.082,5.794-6.133,8.693-9.135
		c0.049-6.878,0.103-13.752,0.151-20.63c-3.1-3.247-6.209-6.521-9.322-9.813C216.388,232.657,213.436,232.242,210.482,231.841z"/>
</g>
</svg>
